<?xml version="1.0" standalone="no"?><!DOCTYPE svg PUBLIC "-//W3C//DTD SVG 1.1//EN" "http://www.w3.org/Graphics/SVG/1.1/DTD/svg11.dtd"><svg xmlns="http://www.w3.org/2000/svg" viewBox="0 0 650 400" version="1.1"><clipPath id="box"><rect x="0" y="0" width="650" height="400" style="fill:none;stroke:none;" /></clipPath><g clip-path="url(#box)"><rect x="0.00" y="0.00" width="650.00" height="400.00" style="fill:#FFFFFF;stroke:none;" /><path d="M0.00 371.00 L650.00 371.00 M0.00 293.00 L650.00 293.00 M0.00 215.00 L650.00 215.00 M0.00 137.00 L650.00 137.00 M0.00 59.00 L650.00 59.00 M20.00 0.00 L20.00 400.00 M98.00 0.00 L98.00 400.00 M177.00 0.00 L177.00 400.00 M255.00 0.00 L255.00 400.00 M333.00 0.00 L333.00 400.00 M411.00 0.00 L411.00 400.00 M489.00 0.00 L489.00 400.00 M567.00 0.00 L567.00 400.00 M645.00 0.00 L645.00 400.00 " style="fill:none;stroke:#D0D0D0;stroke-width:1;" /><path d="M99.00 0.00 L99.00 400.00 " style="fill:none;stroke:#000000;stroke-width:1;" /><path d="M92.50 450.00 L105.50 450.00 M92.50 371.87 L105.50 371.87 M92.50 293.75 L105.50 293.75 M92.50 215.62 L105.50 215.62 M92.50 137.50 L105.50 137.50 M92.50 59.38 L105.50 59.38 " style="fill:none;stroke:#000000;stroke-width:1;" /><path d="M0.00 293.75 L650.00 293.75 " style="fill:none;stroke:#000000;stroke-width:1;" /><path d="M-57.25 287.25 L-57.25 300.25 M20.87 287.25 L20.87 300.25 M99.00 287.25 L99.00 300.25 M177.12 287.25 L177.12 300.25 M255.25 287.25 L255.25 300.25 M333.38 287.25 L333.38 300.25 M411.50 287.25 L411.50 300.25 M489.62 287.25 L489.62 300.25 M567.75 287.25 L567.75 300.25 M645.87 287.25 L645.87 300.25 " style="fill:none;stroke:#000000;stroke-width:1;" /><text x="107.12499999999999" y="374.3749999999999" text-anchor="start" style="font:10px Droid Sans,Trebuchet MS,Arial,Helvetica,sans-serif;stroke:none;fill:#000000">-1</text><text x="107.12499999999999" y="296.24999999999994" text-anchor="start" style="font:10px Droid Sans,Trebuchet MS,Arial,Helvetica,sans-serif;stroke:none;fill:#000000">0</text><text x="107.12499999999999" y="218.12499999999994" text-anchor="start" style="font:10px Droid Sans,Trebuchet MS,Arial,Helvetica,sans-serif;stroke:none;fill:#000000">1</text><text x="107.12499999999999" y="140" text-anchor="start" style="font:10px Droid Sans,Trebuchet MS,Arial,Helvetica,sans-serif;stroke:none;fill:#000000">2</text><text x="107.12499999999999" y="61.875000000000014" text-anchor="start" style="font:10px Droid Sans,Trebuchet MS,Arial,Helvetica,sans-serif;stroke:none;fill:#000000">3</text><text x="20.87499999999999" y="309.87499999999994" text-anchor="middle" style="font:10px Droid Sans,Trebuchet MS,Arial,Helvetica,sans-serif;stroke:none;fill:#000000">-1</text><text x="98.99999999999999" y="309.87499999999994" text-anchor="middle" style="font:10px Droid Sans,Trebuchet MS,Arial,Helvetica,sans-serif;stroke:none;fill:#000000">0</text><text x="177.12499999999997" y="309.87499999999994" text-anchor="middle" style="font:10px Droid Sans,Trebuchet MS,Arial,Helvetica,sans-serif;stroke:none;fill:#000000">1</text><text x="255.25" y="309.87499999999994" text-anchor="middle" style="font:10px Droid Sans,Trebuchet MS,Arial,Helvetica,sans-serif;stroke:none;fill:#000000">2</text><text x="333.375" y="309.87499999999994" text-anchor="middle" style="font:10px Droid Sans,Trebuchet MS,Arial,Helvetica,sans-serif;stroke:none;fill:#000000">3</text><text x="411.5" y="309.87499999999994" text-anchor="middle" style="font:10px Droid Sans,Trebuchet MS,Arial,Helvetica,sans-serif;stroke:none;fill:#000000">4</text><text x="489.62499999999994" y="309.87499999999994" text-anchor="middle" style="font:10px Droid Sans,Trebuchet MS,Arial,Helvetica,sans-serif;stroke:none;fill:#000000">5</text><text x="567.75" y="309.87499999999994" text-anchor="middle" style="font:10px Droid Sans,Trebuchet MS,Arial,Helvetica,sans-serif;stroke:none;fill:#000000">6</text><path d="M-10.00 200.00 L-0.25 293.75 L0.75 293.75 L2.75 293.75 L4.75 293.75 L6.75 293.75 L8.75 293.75 L10.75 293.75 L12.75 293.75 L14.75 293.75 L16.75 293.75 L18.75 293.75 L20.75 293.75 L22.75 293.75 L24.75 293.75 L26.75 293.75 L28.75 293.75 L30.75 293.75 L32.75 293.75 L34.75 293.75 L36.75 293.75 L38.75 293.75 L40.75 293.75 L42.75 293.75 L44.75 293.75 L46.75 293.75 L48.75 293.75 L50.75 293.75 L52.75 293.75 L54.75 293.75 L56.75 293.75 L58.75 293.75 L60.75 293.75 L62.75 293.75 L64.75 293.75 L66.75 293.75 L68.75 293.75 L70.75 293.75 L72.75 293.75 L74.75 293.75 L76.75 293.75 L78.75 293.75 L80.75 293.75 L82.75 293.75 L84.75 293.75 L86.75 293.75 L88.75 293.75 L90.75 293.75 L92.75 293.75 L94.75 293.75 L96.75 293.75 L98.75 293.75 L100.75 241.08 L100.79 241.07 L102.79 240.40 L104.79 239.74 L106.79 239.07 L108.79 238.40 L110.79 237.74 L112.79 237.07 L114.79 236.40 L116.79 235.74 L118.79 235.07 L120.79 234.40 L122.79 233.74 L124.79 233.07 L126.79 232.40 L128.79 231.74 L130.79 231.07 L132.79 230.40 L134.79 229.74 L136.79 229.07 L138.79 228.40 L140.79 227.74 L142.79 227.07 L144.79 226.40 L146.79 225.74 L148.79 225.07 L150.79 224.40 L152.79 223.74 L154.79 223.07 L156.79 222.40 L158.79 221.74 L160.79 221.07 L162.79 220.40 L164.79 219.74 L166.79 219.07 L168.79 218.40 L170.79 217.74 L172.79 217.07 L174.79 216.40 L176.79 215.74 L178.79 215.07 L180.79 214.40 L182.79 213.74 L184.79 213.07 L186.79 212.40 L188.79 211.74 L190.79 211.07 L192.79 210.40 L194.79 209.74 L196.79 209.07 L198.79 208.40 L200.79 207.74 L202.79 207.07 L204.79 206.40 L206.79 205.74 L208.79 205.07 L210.79 204.40 L212.79 203.74 L214.79 203.07 L216.79 202.40 L218.79 201.74 L220.79 201.07 L222.79 200.40 L224.79 199.74 L226.79 199.07 L228.79 198.40 L230.79 197.74 L232.79 197.07 L234.79 196.40 L236.79 195.74 L238.79 195.07 L240.79 194.40 L242.79 193.74 L244.79 193.07 L246.79 192.40 L248.79 191.74 L250.79 191.07 L252.79 190.40 L254.79 189.74 L256.79 189.07 L258.79 188.40 L260.79 187.74 L262.79 187.07 L264.79 186.40 L266.79 185.74 L268.79 185.07 L270.79 184.40 L272.79 183.74 L274.79 183.07 L276.79 182.40 L278.79 181.74 L280.79 181.07 L282.79 180.40 L284.79 179.74 L286.79 179.07 L288.79 178.40 L290.79 177.74 L292.79 177.07 L294.79 176.40 L296.79 175.74 L298.79 175.07 L300.79 174.40 L302.79 173.74 L304.79 173.07 L306.79 172.40 L308.79 171.74 L310.79 171.07 L312.79 170.40 L314.79 169.74 L316.79 169.07 L318.79 168.40 L320.79 167.74 L322.79 167.07 L324.79 166.40 L326.79 165.74 L328.79 165.07 L330.79 164.40 L332.79 163.74 L334.79 163.07 L336.79 162.40 L338.79 161.74 L340.79 161.07 L342.79 160.40 L344.79 159.74 L346.79 159.07 L348.79 158.40 L350.79 157.74 L352.79 157.07 L354.79 156.40 L356.79 155.74 L358.79 155.07 L360.79 154.40 L362.79 153.74 L364.79 153.07 L366.79 152.40 L368.79 151.74 L370.79 151.07 L372.79 150.40 L374.79 149.74 L376.79 149.07 L378.79 148.40 L380.79 147.74 L382.79 147.07 L384.79 146.40 L386.79 145.74 L388.79 145.07 L390.79 144.40 L392.79 143.74 L394.79 143.07 L396.79 142.40 L398.79 141.74 L400.79 141.07 L402.79 140.40 L404.79 139.74 L406.79 139.07 L408.79 138.40 L410.79 137.74 L412.79 137.07 L414.79 136.40 L416.79 135.74 L418.79 135.07 L420.79 134.40 L422.79 133.74 L424.79 133.07 L426.79 132.40 L428.79 131.74 L430.79 131.07 L432.79 130.40 L434.79 129.74 L436.79 129.07 L438.79 128.40 L440.79 127.74 L442.79 127.07 L444.79 126.40 L446.79 125.74 L448.79 125.07 L450.79 124.40 L452.79 123.74 L454.79 123.07 L456.79 122.40 L458.79 121.74 L460.79 121.07 L462.79 120.40 L464.79 119.74 L466.79 119.07 L468.79 118.40 L470.79 117.74 L472.79 117.07 L474.79 116.40 L476.79 115.74 L478.79 115.07 L480.79 114.40 L482.79 113.74 L484.79 113.07 L486.79 112.40 L488.79 111.74 L490.79 111.07 L492.79 110.40 L494.79 109.74 L496.79 109.07 L498.79 108.40 L500.79 107.74 L502.79 107.07 L504.79 106.40 L506.79 105.74 L508.79 105.07 L510.79 104.40 L512.79 103.74 L514.79 103.07 L516.79 102.40 L518.79 101.74 L520.79 101.07 L522.79 100.40 L524.79 99.74 L526.79 99.07 L528.79 98.40 L530.79 97.74 L532.79 97.07 L534.79 96.40 L536.79 95.74 L538.79 95.07 L540.79 94.40 L542.79 93.74 L544.79 93.07 L546.79 92.40 L548.79 91.74 L550.79 91.07 L552.79 90.40 L554.79 89.74 L556.79 89.07 L558.79 88.40 L560.79 87.74 L562.79 87.07 L564.79 86.40 L566.79 85.74 L568.79 293.75 L568.80 293.75 L570.80 293.75 L572.80 293.75 L574.80 293.75 L576.80 293.75 L578.80 293.75 L580.80 293.75 L582.80 293.75 L584.80 293.75 L586.80 293.75 L588.80 293.75 L590.80 293.75 L592.80 293.75 L594.80 293.75 L596.80 293.75 L598.80 293.75 L600.80 293.75 L602.80 293.75 L604.80 293.75 L606.80 293.75 L608.80 293.75 L610.80 293.75 L612.80 293.75 L614.80 293.75 L616.80 293.75 L618.80 293.75 L620.80 293.75 L622.80 293.75 L624.80 293.75 L626.80 293.75 L628.80 293.75 L630.80 293.75 L632.80 293.75 L634.80 293.75 L636.80 293.75 L638.80 293.75 L640.80 293.75 L642.80 293.75 L644.80 293.75 L646.80 293.75 L648.80 293.75 " style="fill:none;stroke:#000000;stroke-width:1;" /></g></svg>